<?xml version="1.0" encoding="UTF-8"?>
<svg width="86px" height="16px" viewBox="0 0 86 16" version="1.1" xmlns="http://www.w3.org/2000/svg" xmlns:xlink="http://www.w3.org/1999/xlink">
    <!-- Generator: Sketch 47.1 (45422) - http://www.bohemiancoding.com/sketch -->
    <title>Logo - Ripen White Copy 2</title>
    <desc>Created with Sketch.</desc>
    <defs>
        <polygon id="path-1" points="0.0204847366 0.0223931156 5.03540916 0.0223931156 5.03540916 15.5713718 0.0204847366 15.5713718 0.0204847366 0.0223931156"></polygon>
        <polygon id="path-3" points="0.0207496362 0.0223931156 14.8000485 0.0223931156 14.8000485 15.5713668 0.0207496362 15.5713668"></polygon>
        <polygon id="path-5" points="0.00419840887 0.0223931156 10.9098903 0.0223931156 10.9098903 15.5713718 0.00419840887 15.5713718 0.00419840887 0.0223931156"></polygon>
        <polygon id="path-7" points="0.0209670538 0.0223931156 16.5783421 0.0223931156 16.5783421 15.5713718 0.0209670538 15.5713718 0.0209670538 0.0223931156"></polygon>
        <polygon id="path-9" points="4.9981058e-06 0.0223931156 15.4415067 0.0223931156 15.4415067 15.5713668 4.9981058e-06 15.5713668"></polygon>
    </defs>
    <g id="Symbols" stroke="none" stroke-width="1" fill="none" fill-rule="evenodd">
        <g id="Mobile-Block---Footer" transform="translate(-15.000000, -623.000000)">
            <g id="Logo---Ripen-White-Copy-2" transform="translate(15.000000, 623.000000)">
                <g id="Group-3" transform="translate(20.242328, 0.002323)">
                    <mask id="mask-2" fill="white">
                        <use xlink:href="#path-1"></use>
                    </mask>
                    <g id="Clip-2"></g>
                    <path d="M0.278486958,15.5713767 L4.77740694,15.5713767 C4.91990294,15.5713767 5.03540916,15.4571372 5.03540916,15.316204 L5.03540916,0.277546108 C5.03540916,0.136612835 4.91990294,0.0223733424 4.77740694,0.0223733424 L0.278486958,0.0223733424 C0.135990962,0.0223733424 0.0204847366,0.136612835 0.0204847366,0.277546108 L0.0204847366,15.316204 C0.0204847366,15.4571372 0.135990962,15.5713767 0.278486958,15.5713767" id="Fill-1" fill="#FFFFFF" mask="url(#mask-2)"></path>
                </g>
                <g id="Group-6" transform="translate(31.837934, 0.002323)">
                    <mask id="mask-4" fill="white">
                        <use xlink:href="#path-3"></use>
                    </mask>
                    <g id="Clip-5"></g>
                    <path d="M6.86658018,7.20842795 L5.08145671,7.20842795 C4.93898571,7.20842795 4.82347948,7.09418846 4.82347948,6.9532799 L4.82347948,3.76557293 C4.82347948,3.62463966 4.93898571,3.51040017 5.08145671,3.51040017 L6.68072561,3.51040017 C8.32577717,3.51040017 9.99746862,3.72041596 9.99746862,5.33850393 C9.99746862,6.91447506 8.51148179,7.20842795 6.86658018,7.20842795 M12.4917483,1.15689855 C10.8730368,0.0854151534 8.45850187,0.0223881723 6.44204107,0.0223881723 L0.278751858,0.0223881723 C0.136255861,0.0223881723 0.0207496362,0.136627665 0.0207496362,0.277536221 L0.0207496362,15.3161941 C0.0207496362,15.4571273 0.136255861,15.5713668 0.278751858,15.5713668 L4.56547726,15.5713668 C4.70797326,15.5713668 4.82347948,15.4571273 4.82347948,15.3161941 L4.82347948,10.9516127 C4.82347948,10.8107042 4.93898571,10.6964647 5.08145671,10.6964647 L6.99917993,10.6964647 C9.20164523,10.6964647 11.0322515,10.5285657 12.7304579,9.35166662 C14.110185,8.38532706 14.8000485,6.7042121 14.8000485,5.27547695 C14.8000485,3.67857098 14.0307151,2.18653697 12.4917483,1.15689855" id="Fill-4" fill="#FFFFFF" mask="url(#mask-4)"></path>
                </g>
                <g id="Group-9" transform="translate(51.755386, 0.002323)">
                    <mask id="mask-6" fill="white">
                        <use xlink:href="#path-5"></use>
                    </mask>
                    <g id="Clip-8"></g>
                    <path d="M0.26217564,15.5713767 L10.6518881,15.5713767 C10.7943841,15.5713767 10.9098903,15.4571372 10.9098903,15.316204 L10.9098903,12.3385128 C10.9098903,12.1975795 10.7943841,12.08334 10.6518881,12.08334 L5.06503044,12.08334 C4.92255943,12.08334 4.80705321,11.9691005 4.80705321,11.828192 L4.80705321,9.67012342 C4.80705321,9.52921486 4.92255943,9.41497537 5.06503044,9.41497537 L10.4661835,9.41497537 C10.6086795,9.41497537 10.7241857,9.30073588 10.7241857,9.15980261 L10.7241857,6.18183954 C10.7241857,6.04090627 10.6086795,5.92666678 10.4661835,5.92666678 L5.06503044,5.92666678 C4.92255943,5.92666678 4.80705321,5.81242728 4.80705321,5.67149401 L4.80705321,3.76558282 C4.80705321,3.62464955 4.92255943,3.51041006 5.06503044,3.51041006 L10.6518881,3.51041006 C10.7943841,3.51041006 10.9098903,3.39617056 10.9098903,3.25523729 L10.9098903,0.277546108 C10.9098903,0.136612835 10.7943841,0.0223733424 10.6518881,0.0223733424 L0.26217564,0.0223733424 C0.119704634,0.0223733424 0.00419840887,0.136612835 0.00419840887,0.277546108 L0.00419840887,15.316204 C0.00419840887,15.4571372 0.119704634,15.5713767 0.26217564,15.5713767" id="Fill-7" fill="#FFFFFF" mask="url(#mask-6)"></path>
                </g>
                <g id="Group-12" transform="translate(68.773936, 0.002323)">
                    <mask id="mask-8" fill="white">
                        <use xlink:href="#path-7"></use>
                    </mask>
                    <g id="Clip-11"></g>
                    <path d="M11.7817849,0.28338908 L11.9875069,9.18208202 C11.9877818,9.19448969 11.9822339,9.20627944 11.9724626,9.21406513 L11.966215,9.21903314 C11.9489216,9.23277549 11.9237061,9.23013083 11.9096864,9.21315062 L4.42359853,0.116478804 C4.37461709,0.0569368445 4.30111995,0.022383229 4.22349936,0.022383229 L0.278969275,0.022383229 C0.136473279,0.022383229 0.0209670538,0.136622722 0.0209670538,0.277555995 L0.0209670538,15.3161891 C0.0209670538,15.4571471 0.136473279,15.5713866 0.278969275,15.5713866 L4.56199608,15.5713866 C4.70596652,15.5713866 4.8220975,15.4548238 4.81997331,15.3124322 L4.691497,6.71367357 C4.69124709,6.69716297 4.70134327,6.68218479 4.71686239,6.67605511 C4.73308124,6.66965355 4.7516492,6.67432496 4.76281997,6.6875977 L12.1492706,15.4792931 C12.198302,15.5376239 12.2709995,15.5713866 12.3477204,15.5713866 L16.3203399,15.5713866 C16.4628109,15.5713866 16.5783421,15.4571471 16.5783421,15.3161891 L16.5783421,0.277555995 C16.5783421,0.136622722 16.4628109,0.022383229 16.3203399,0.022383229 L12.0397121,0.022383229 C11.894917,0.022383229 11.7784861,0.140206609 11.7817849,0.28338908" id="Fill-10" fill="#FFFFFF" mask="url(#mask-8)"></path>
                </g>
                <g id="Group-15" transform="translate(0.000000, 0.002323)">
                    <mask id="mask-10" fill="white">
                        <use xlink:href="#path-9"></use>
                    </mask>
                    <g id="Clip-14"></g>
                    <path d="M6.84583554,7.20842795 L5.06071207,7.20842795 C4.91824107,7.20842795 4.80273484,7.09418846 4.80273484,6.9532799 L4.80273484,3.76557293 C4.80273484,3.62463966 4.91824107,3.51040017 5.06071207,3.51040017 L6.65998098,3.51040017 C8.30503253,3.51040017 9.97672398,3.72041596 9.97672398,5.33850393 C9.97672398,6.91447506 8.49073715,7.20842795 6.84583554,7.20842795 M15.3865238,15.1593434 L11.5776673,10.3313284 C11.475406,10.2015422 11.5224632,10.0120411 11.673406,9.94288442 C12.0254226,9.78163421 12.3702419,9.58691792 12.7097132,9.35166662 C14.0894403,8.38532706 14.7793039,6.7042121 14.7793039,5.27547695 C14.7793039,3.67857098 14.0099705,2.18653697 12.4710037,1.15689855 C10.8522922,0.0854151534 8.43775723,0.0223881723 6.42129643,0.0223881723 L0.258007219,0.0223881723 C0.115511223,0.0223881723 4.9981058e-06,0.136627665 4.9981058e-06,0.277536221 L4.9981058e-06,15.3161941 C4.9981058e-06,15.4571273 0.115511223,15.5713668 0.258007219,15.5713668 L4.54473262,15.5713668 C4.68722862,15.5713668 4.80273484,15.4571273 4.80273484,15.3161941 L4.80273484,10.9516127 C4.80273484,10.8107042 4.91824107,10.6964647 5.06071207,10.6964647 L6.48689657,10.6964647 C6.57196433,10.6964647 6.65158416,10.7379389 6.69966594,10.807318 L9.90310189,15.4604888 C9.95120865,15.5298926 10.0308035,15.5713668 10.1158962,15.5713668 L15.1830259,15.5713668 C15.3978445,15.5713668 15.5185737,15.326921 15.3865238,15.1593434" id="Fill-13" fill="#FFFFFF" mask="url(#mask-10)"></path>
                </g>
            </g>
        </g>
    </g>
</svg>