<?xml version="1.0" encoding="UTF-8" standalone="no"?>
<!-- Created with Inkscape (http://www.inkscape.org/) -->

<svg
   xmlns:dc="http://purl.org/dc/elements/1.1/"
   xmlns:cc="http://creativecommons.org/ns#"
   xmlns:rdf="http://www.w3.org/1999/02/22-rdf-syntax-ns#"
   xmlns:svg="http://www.w3.org/2000/svg"
   xmlns="http://www.w3.org/2000/svg"
   xmlns:sodipodi="http://sodipodi.sourceforge.net/DTD/sodipodi-0.dtd"
   xmlns:inkscape="http://www.inkscape.org/namespaces/inkscape"
   width="500"
   height="500"
   viewBox="0 0 500.00001 500.00001"
   id="svg7105"
   version="1.1"
   inkscape:version="0.91 r13725"
   sodipodi:docname="whitelogo.svg">
  <defs
     id="defs7107" />
  <sodipodi:namedview
     id="base"
     pagecolor="#ffffff"
     bordercolor="#666666"
     borderopacity="1.0"
     inkscape:pageopacity="0.0"
     inkscape:pageshadow="2"
     inkscape:zoom="0.49497475"
     inkscape:cx="634.14527"
     inkscape:cy="-8.675511"
     inkscape:document-units="px"
     inkscape:current-layer="layer1"
     showgrid="false"
     units="px"
     inkscape:window-width="1280"
     inkscape:window-height="961"
     inkscape:window-x="1912"
     inkscape:window-y="-8"
     inkscape:window-maximized="1"
     inkscape:snap-intersection-paths="true"
     inkscape:object-nodes="true" />
  <metadata
     id="metadata7110">
    <rdf:RDF>
      <cc:Work
         rdf:about="">
        <dc:format>image/svg+xml</dc:format>
        <dc:type
           rdf:resource="http://purl.org/dc/dcmitype/StillImage" />
        <dc:title />
      </cc:Work>
    </rdf:RDF>
  </metadata>
  <g
     inkscape:label="Layer 1"
     inkscape:groupmode="layer"
     id="layer1"
     transform="translate(0,-552.36216)">
    <g
       transform="matrix(1.5216365,0,0,1.5216365,753.17813,-907.63936)"
       id="g5053-8-9-3-6"
       style="fill:#ffffff"
       inkscape:export-filename="C:\Users\Enrique\Desktop\UMAMI\DISEÑO\LogosWeb\250white.png"
       inkscape:export-xdpi="68.473633"
       inkscape:export-ydpi="68.473633">
      <path
         inkscape:connector-curvature="0"
         id="path4593-5-7-6-6-0-3-1-2-1-7-3-8"
         d="m -337.1934,1082.3227 c -4.01581,-0.1124 -7.42357,-0.3352 -9.9744,-0.6524 -0.86126,-0.107 -2.23927,-0.3078 -2.26083,-0.3293 -0.0244,-0.024 0.27468,-0.9914 0.48193,-1.5593 0.93944,-2.5746 2.4594,-5.3557 6.89709,-12.6194 l 0.77029,-1.2608 5.41181,-4.2265 c 2.97657,-2.3246 5.9256,-4.6275 6.55353,-5.1175 l 1.14162,-0.891 0.93464,0.1191 c 0.51408,0.066 1.86902,0.2392 3.01097,0.3861 1.14195,0.1469 2.17301,0.2777 2.29123,0.2906 0.11822,0.013 0.2236,0.038 0.23422,0.055 0.0108,0.017 -0.0952,0.126 -0.23526,0.2417 -0.71061,0.5875 -1.89213,1.7728 -2.49613,2.5042 -0.96984,1.1744 -1.94448,2.6505 -2.92991,4.4376 -0.19758,0.3582 -0.96172,1.8582 -1.69818,3.3333 -0.73641,1.475 -1.661,3.2979 -2.05456,4.0508 -0.9018,1.725 -2.06612,4.0673 -2.43115,4.8905 -0.83645,1.8867 -1.64705,4.2428 -2.06251,5.9947 l -0.0941,0.397 -0.18546,-0.01 c -0.10185,0 -0.68913,-0.021 -1.30488,-0.038 z"
         style="fill:#ffffff;fill-opacity:1;stroke:none" />
      <path
         inkscape:connector-curvature="0"
         id="path4591-1-3-7-7-0-8-4-1-8-6-2-6"
         d="m -334.34361,1082.3482 c 0,-0.1539 0.62895,-2.277 0.92172,-3.1111 0.70884,-2.0197 1.51484,-3.783 3.2311,-7.0685 0.45619,-0.8732 1.41104,-2.754 2.1218,-4.1795 0.7108,-1.4255 1.48889,-2.9552 1.72908,-3.3994 1.50234,-2.7788 2.84628,-4.6144 4.50611,-6.1549 0.6533,-0.6063 1.87404,-1.5797 2.08031,-1.6589 0.0282,-0.011 1.00269,0.099 2.1655,0.2453 4.48393,0.5619 8.22285,0.9764 11.45925,1.2705 l 1.24335,0.1129 -0.40878,0.3227 c -0.53024,0.4185 -1.65922,1.5529 -2.11325,2.1235 -1.17991,1.4827 -2.03182,2.965 -3.57418,6.2186 -1.87498,3.9553 -2.38497,4.83 -5.09762,8.7429 -1.50661,2.1732 -2.32938,3.4382 -3.15131,4.8447 l -0.3687,0.6311 -0.40032,0.071 c -2.46179,0.4385 -5.69979,0.7686 -9.09224,0.9268 -1.18043,0.055 -5.25182,0.1031 -5.25182,0.062 z"
         style="fill:#ffffff;fill-opacity:1;stroke:none" />
      <path
         inkscape:connector-curvature="0"
         id="path4589-5-2-9-1-6-8-1-9-8-1-6-9"
         d="m -351.60531,1080.9437 c -1.62718,-0.3537 -2.74911,-0.659 -4.19332,-1.1412 -0.59339,-0.1981 -1.14909,-0.39 -1.23489,-0.4265 l -0.15609,-0.066 0.17371,-0.1915 c 2.22615,-2.4534 5.0526,-5.1712 7.50725,-7.2186 1.71687,-1.4321 4.51692,-3.5593 5.47571,-4.1599 l 0.14247,-0.089 -0.0652,0.1014 c -0.21276,0.331 -2.24772,3.7426 -2.79685,4.6887 -2.20572,3.8005 -3.23199,5.9937 -3.91629,8.3692 -0.0638,0.2215 -0.10239,0.2944 -0.15454,0.292 -0.0381,0 -0.39017,-0.073 -0.78199,-0.158 z"
         style="fill:#ffffff;fill-opacity:1;stroke:none" />
      <path
         inkscape:connector-curvature="0"
         id="path4587-3-5-1-1-4-2-1-6-2-7-9-5"
         d="m -317.75089,1080.7487 c 0.48212,-0.8309 1.44369,-2.286 2.96628,-4.4885 0.48762,-0.7053 1.09045,-1.5886 1.33971,-1.9627 0.26265,-0.3943 0.46408,-0.6596 0.47912,-0.6311 0.0395,0.075 0.23047,1.1234 0.30945,1.6981 0.0918,0.6675 0.10177,2.986 0.016,3.7354 l -0.057,0.4987 -0.37044,0.1186 c -0.5861,0.1875 -1.73205,0.5116 -2.50788,0.7092 -0.75864,0.1933 -2.15845,0.5156 -2.23912,0.5156 -0.0287,0 0,-0.08 0.0638,-0.1933 z"
         style="fill:#ffffff;fill-opacity:1;stroke:none" />
      <path
         inkscape:connector-curvature="0"
         id="path4585-2-7-4-3-8-2-7-9-8-9-7-8"
         d="m -311.27221,1078.5909 c 0.0531,-0.8489 0.0296,-2.4058 -0.0465,-3.0839 -0.12212,-1.0889 -0.34394,-2.2071 -0.61561,-3.1033 l -0.10149,-0.3349 0.37062,-0.6625 c 0.40775,-0.7289 1.07439,-2.0673 1.81038,-3.6345 0.60433,-1.2869 1.33088,-2.7417 1.6977,-3.3994 1.48861,-2.6689 3.03793,-4.3681 5.04584,-5.5338 l 0.4341,-0.2521 0.8076,0.064 c 3.81635,0.3 7.20057,0.4498 9.56632,0.4232 l 1.4406,-0.016 -0.19391,0.1605 c -0.31819,0.2632 -1.44022,1.4038 -1.74699,1.7757 -0.78397,0.9506 -1.46729,1.955 -2.7837,4.0916 -0.45529,0.7389 -1.21618,1.9297 -1.69088,2.6462 -1.36608,2.0621 -1.84971,2.9173 -2.27817,4.0287 -0.22323,0.5791 -0.47033,1.436 -0.57304,1.9875 l -0.0742,0.398 -1.03994,0.5441 c -3.26615,1.709 -6.25625,3.0556 -9.12931,4.1111 -0.46347,0.1702 -0.8628,0.3095 -0.88743,0.3095 -0.0319,0 -0.0352,-0.1492 -0.0122,-0.519 z"
         style="fill:#ffffff;fill-opacity:1;stroke:none" />
      <path
         inkscape:connector-curvature="0"
         id="path4583-5-9-6-0-9-9-3-3-7-2-7-9"
         d="m -359.15739,1078.4841 c -0.96504,-0.4403 -1.97449,-0.9559 -1.97449,-1.0086 0,-0.1496 0.33294,-1.1652 0.6173,-1.8829 0.84885,-2.1425 1.99818,-4.0411 5.36295,-8.859 4.0166,-5.7511 6.87392,-8.9679 10.60979,-11.9446 l 0.65137,-0.519 0.44782,0.024 c 0.24635,0.014 0.96077,0.052 1.5878,0.085 1.38933,0.074 3.54933,0.2288 5.10932,0.3655 2.31781,0.2031 6.65007,0.6699 6.65407,0.717 0.005,0.048 -12.12983,9.4972 -12.45812,9.7017 -2.96868,1.8494 -6.91302,4.8501 -9.84965,7.4932 -1.5653,1.4089 -3.75448,3.571 -5.0488,4.9864 -0.35799,0.3914 -0.74243,0.8074 -0.85435,0.9246 l -0.20359,0.213 -0.65142,-0.2971 z"
         style="fill:#ffffff;fill-opacity:1;stroke:none" />
      <path
         inkscape:connector-curvature="0"
         id="path4581-3-0-3-2-0-9-4-1-9-1-27-8"
         d="m -362.76038,1076.6175 c -1.51563,-0.8991 -3.39667,-2.1077 -4.94641,-3.1781 -1.56802,-1.083 -3.76584,-2.6494 -3.76584,-2.6838 0,-0.021 0.15656,-0.3494 0.34784,-0.7304 2.74709,-5.4693 6.98678,-10.4928 12.08957,-14.3244 0.85956,-0.6454 1.97149,-1.4291 2.37439,-1.6735 l 0.21675,-0.1314 3.42698,0.091 c 4.22861,0.1121 7.0349,0.199 7.0544,0.2185 0.008,0.01 -0.2643,0.2538 -0.60532,0.5459 -1.03351,0.8854 -1.91619,1.7237 -3.05894,2.9054 -2.41133,2.4932 -5.06228,5.9591 -8.7179,11.3977 -2.06118,3.0665 -3.07688,4.975 -3.75306,7.0523 -0.12921,0.397 -0.25325,0.7205 -0.27567,0.719 -0.0226,0 -0.1964,-0.095 -0.38674,-0.208 z"
         style="fill:#ffffff;fill-opacity:1;stroke:none" />
      <path
         inkscape:connector-curvature="0"
         id="path4579-2-9-6-1-0-3-2-9-4-1-3-0"
         d="m -298.61411,1073.0806 c 0.26392,-0.8887 0.70916,-1.8765 1.25523,-2.7847 0.17498,-0.2911 0.75253,-1.1888 1.28343,-1.9949 0.53085,-0.806 1.29108,-1.9969 1.68938,-2.6463 0.39831,-0.6493 0.91426,-1.4703 1.14665,-1.8244 1.36697,-2.083 2.55252,-3.3537 4.08408,-4.3772 0.78002,-0.5213 0.8925,-0.5692 1.49938,-0.6392 3.53922,-0.4081 6.12708,-1.1267 10.55303,-2.9303 4.86842,-1.9839 5.99073,-2.403 7.95226,-2.9695 1.23935,-0.3579 3.5708,-0.9063 3.64865,-0.8583 0.0183,0.011 0.0456,0.1037 0.0609,0.2052 0.0399,0.266 -0.061,0.5783 -0.24955,0.7724 -0.22694,0.2337 -0.65325,0.4117 -2.27253,0.9492 -2.09248,0.6945 -3.07106,1.0719 -4.49069,1.7323 -1.21051,0.5631 -1.99212,1.0999 -4.0995,2.8153 -5.0502,4.111 -9.59381,7.3083 -15.57763,10.9619 -2.07021,1.2639 -6.42356,3.7961 -6.52641,3.7961 -0.01,0 0.009,-0.093 0.0432,-0.2076 z"
         style="fill:#ffffff;fill-opacity:1;stroke:none" />
      <path
         inkscape:connector-curvature="0"
         id="path4577-86-8-3-9-8-4-9-7-4-2-8-1"
         d="m -373.24363,1069.5545 c -2.56103,-1.8079 -5.70351,-3.7576 -7.20593,-4.4709 -1.93766,-0.9198 -4.39842,-1.6549 -7.41234,-2.2141 -0.89528,-0.1662 -2.55384,-0.4021 -3.06204,-0.4356 -0.23018,-0.015 -0.42612,-0.04 -0.43542,-0.055 -0.009,-0.015 0.92102,-0.4274 2.06744,-0.9165 1.14627,-0.4891 3.89792,-1.6714 6.11467,-2.6273 4.48055,-1.9321 5.60018,-2.4004 6.94131,-2.9032 5.0604,-1.8968 8.53418,-2.3795 15.71469,-2.1837 0.88446,0.024 1.6502,0.053 1.70155,0.063 0.0789,0.016 0.0183,0.074 -0.38674,0.3692 -1.95824,1.4275 -3.40682,2.6719 -5.22669,4.4898 -1.89748,1.8956 -3.03718,3.2184 -4.49196,5.2134 -1.16916,1.6034 -2.61267,3.9796 -3.4688,5.7099 -0.10797,0.2183 -0.20599,0.3958 -0.21773,0.3944 -0.0118,0 -0.29611,-0.1964 -0.63201,-0.4335 z"
         style="fill:#ffffff;fill-opacity:1;stroke:none" />
      <path
         inkscape:connector-curvature="0"
         id="path4575-18-2-8-1-5-1-6-51-9-3-6-1"
         d="m -393.58462,1061.4513 c -0.19946,-0.4588 -0.23113,-1.0301 -0.0843,-1.5166 0.13697,-0.4536 2.30397,-3.5524 4.11401,-5.8828 3.49333,-4.4975 7.57026,-8.7755 11.87372,-12.4591 1.27699,-1.0931 3.01355,-2.4909 4.13558,-3.3291 l 0.14575,-0.1089 0.60278,0.6492 c 0.82663,0.8904 1.75446,1.7643 2.81038,2.647 0.77786,0.6503 1.58282,1.2736 3.52161,2.7267 2.54684,1.909 3.50549,2.692 4.84469,3.9573 0.71677,0.6771 1.65659,1.667 2.37097,2.4972 0.45036,0.5232 1.27985,1.553 1.34159,1.6655 0.0414,0.076 0.0226,0.077 -0.72551,0.051 -4.56216,-0.157 -6.78545,-0.1388 -9.15491,0.075 -2.36796,0.2137 -4.41181,0.6295 -6.79753,1.3832 -1.91473,0.6048 -3.54628,1.2593 -8.9579,3.5935 -4.97043,2.1439 -9.88893,4.2439 -9.93986,4.2439 -0.009,0 -0.0548,-0.087 -0.10107,-0.1934 z"
         style="fill:#ffffff;fill-opacity:1;stroke:none" />
      <path
         inkscape:connector-curvature="0"
         id="path4573-6-6-9-9-3-9-15-64-3-6-5-5"
         d="m -295.46393,1057.5733 c -1.84956,-0.076 -6.57617,-0.3709 -6.86396,-0.4289 -0.0597,-0.012 -0.21454,-0.2293 -0.51323,-0.7203 -0.23531,-0.3866 -1.16958,-1.9213 -2.07618,-3.4103 -1.8185,-2.9867 -4.30923,-7.0972 -6.36069,-10.4968 l -1.33478,-2.212 -3.92198,-7.7217 c -2.53142,-4.9839 -3.90318,-7.7259 -3.86884,-7.7337 0.0709,-0.016 1.96538,0.4518 3.15888,0.7802 3.51437,0.967 7.01545,2.1688 11.24664,3.8604 l 1.74041,0.6958 0,0.1469 c 0,0.5125 0.12823,1.8746 0.24893,2.6703 0.62177,4.0985 2.30364,8.2714 5.43578,13.4863 2.60599,4.339 5.38014,7.9415 8.13282,10.5613 l 0.48481,0.4614 -0.1591,0.031 c -0.23676,0.046 -4.38648,0.069 -5.34984,0.03 z"
         style="fill:#ffffff;fill-opacity:1;stroke:none" />
      <path
         inkscape:connector-curvature="0"
         id="path4571-9-6-8-6-7-1-0-87-2-7-4-0"
         d="m -288.73364,1056.8455 c -2.92061,-2.6624 -5.61986,-6.0209 -8.20584,-10.2101 -3.68935,-5.9767 -5.48159,-10.5393 -5.91278,-15.0527 -0.0721,-0.7541 -0.0735,-0.7975 -0.0268,-0.7975 0.0882,0 3.49253,1.5087 5.21687,2.312 2.13556,0.9947 5.50517,2.6563 7.54634,3.7211 l 0.72744,0.3794 0.45713,1.3433 c 0.9626,2.8286 1.74051,4.722 3.13609,7.6332 0.85928,1.7925 1.7834,3.5637 4.21263,8.0739 0.44209,0.8207 0.76973,1.473 0.74952,1.4921 -0.0595,0.056 -1.50177,0.5129 -2.38412,0.7548 -1.31016,0.3594 -3.08262,0.6919 -4.62099,0.867 l -0.29249,0.033 -0.60316,-0.5498 z"
         style="fill:#ffffff;fill-opacity:1;stroke:none" />
      <path
         inkscape:connector-curvature="0"
         id="path4569-1-5-4-9-2-2-4-7-1-6-6-1"
         d="m -305.13296,1056.9184 c -3.0307,-0.2824 -5.69937,-0.5627 -8.69196,-0.913 -2.05654,-0.2408 -5.41975,-0.6615 -5.43526,-0.6799 -0.1162,-0.1384 -2.03464,-3.3197 -2.8794,-4.7748 -2.77735,-4.7839 -5.41567,-9.882 -6.92115,-13.3737 -2.0453,-4.7439 -3.25332,-8.9259 -3.7338,-12.926 -0.0456,-0.3807 -0.0917,-0.7546 -0.1021,-0.8309 l -0.0193,-0.1388 1.02274,0.027 c 0.56243,0.015 1.17527,0.039 1.36176,0.053 l 0.33914,0.026 0.19189,0.3095 c 0.72974,1.1772 1.86742,2.8317 2.85821,4.1568 3.57391,4.7797 7.90748,9.1057 12.63175,12.6097 l 0.8106,0.6013 0.66556,1.0992 c 0.36607,0.6045 1.53499,2.5374 2.59758,4.2951 2.04841,3.3884 3.99678,6.5986 5.48046,9.0299 0.49603,0.8129 0.90185,1.4862 0.90185,1.4962 0,0.028 -0.19095,0.016 -1.07885,-0.067 z"
         style="fill:#ffffff;fill-opacity:1;stroke:none" />
      <path
         inkscape:connector-curvature="0"
         id="path4567-4-9-8-6-7-1-5-1-3-8-2-7"
         d="m -279.55847,1055.2224 c -0.12578,-0.2179 -3.03761,-5.6545 -3.40706,-6.3612 -1.50069,-2.8708 -2.67769,-5.3844 -3.58401,-7.6538 -0.3327,-0.8331 -1.00973,-2.6551 -1.11779,-3.0083 -0.0277,-0.091 -0.007,-0.085 0.33101,0.097 4.62705,2.499 9.87892,5.609 14.8135,8.7721 1.79149,1.1483 5.63739,3.7155 5.61662,3.7492 -0.01,0.016 -0.0868,0.041 -0.17102,0.057 -0.28714,0.052 -1.61698,0.3921 -2.4126,0.6171 -1.7765,0.5026 -3.42529,1.1026 -6.61569,2.4073 -2.13947,0.8749 -3.34259,1.354 -3.40062,1.354 -0.0193,0 -0.0428,-0.014 -0.0523,-0.03 z"
         style="fill:#ffffff;fill-opacity:1;stroke:none" />
      <path
         inkscape:connector-curvature="0"
         id="path4565-1-1-1-4-0-3-5-66-3-9-9-8"
         d="m -322.65934,1054.9015 c -0.90688,-0.1205 -2.49478,-0.3256 -3.52875,-0.4558 l -1.87987,-0.2367 -0.39995,-0.3597 c -1.51671,-1.3642 -3.83242,-3.6562 -5.08314,-5.0309 -3.05916,-3.3627 -5.13698,-6.1927 -6.88829,-9.382 -0.87127,-1.5865 -1.69367,-3.3107 -3.54403,-7.4298 -1.19697,-2.6649 -1.44252,-3.1859 -2.39239,-5.0775 l -0.86304,-1.7187 0.20853,-0.06 c 0.80745,-0.2324 2.70635,-0.6628 4.03545,-0.9148 2.7211,-0.5158 5.23054,-0.8011 8.12313,-0.9236 l 0.63225,-0.027 0.0943,0.8085 c 0.83113,7.1291 3.62887,14.3436 9.78607,25.2356 0.94377,1.6695 2.92625,5.0387 3.35979,5.7098 0.0324,0.05 0.0432,0.089 0.024,0.087 -0.0193,-0.01 -0.7772,-0.1037 -1.68403,-0.2242 z"
         style="fill:#ffffff;fill-opacity:1;stroke:none" />
      <path
         inkscape:connector-curvature="0"
         id="path4563-5-6-2-7-8-7-0-3-1-0-49-1"
         d="m -331.72494,1053.7852 c -3.71801,-0.4279 -7.5187,-0.7489 -10.65831,-0.9003 l -1.05766,-0.051 -0.55044,-0.4717 c -3.46654,-2.9702 -6.83169,-5.5073 -11.50197,-8.6714 -4.02107,-2.7243 -5.62024,-3.968 -7.43127,-5.7795 -1.28357,-1.2838 -2.33855,-2.5345 -3.31769,-3.9332 l -0.30663,-0.4379 0.47954,-0.2839 c 0.79312,-0.4695 1.817,-1.0518 2.65763,-1.5116 1.07729,-0.5891 4.00213,-2.0446 5.14991,-2.5626 l 0.93624,-0.4226 1.08463,1.0676 c 4.52302,4.4523 9.41865,8.2482 14.81246,11.4852 l 0.83861,0.5033 0.33896,0.543 c 0.97045,1.5545 2.46348,3.5717 3.90891,5.2812 1.40408,1.6606 2.39873,2.7306 4.30496,4.631 0.92651,0.9236 1.67961,1.6772 1.67369,1.6745 -0.006,-0.01 -0.61862,-0.075 -1.36152,-0.1601 z"
         style="fill:#ffffff;fill-opacity:1;stroke:none" />
      <path
         inkscape:connector-curvature="0"
         id="path4561-6-0-6-1-2-4-3-6-0-2-8-0"
         d="m -346.61816,1052.7028 c -0.0896,-0.01 -1.23456,-0.04 -2.54444,-0.076 -1.30997,-0.035 -3.33986,-0.091 -4.51099,-0.1236 -1.17118,-0.033 -2.20938,-0.06 -2.3073,-0.06 l -0.17794,0 -0.37969,-0.5188 c -1.55872,-2.13 -3.52659,-4.2568 -5.5297,-5.9761 -0.86539,-0.7427 -1.77861,-1.4579 -3.76589,-2.9493 -2.05142,-1.5395 -3.13421,-2.3931 -4.01008,-3.1611 -0.57201,-0.5015 -2.12349,-2.0333 -2.34752,-2.3177 l -0.12879,-0.1635 0.8412,-0.5929 c 1.33121,-0.9384 3.7758,-2.5507 3.81094,-2.5134 0.008,0.01 0.21299,0.2932 0.456,0.6332 1.82805,2.5572 3.8126,4.6194 6.36549,6.6145 1.14346,0.8937 2.37416,1.7689 4.74283,3.3731 3.09436,2.0955 5.24266,3.6505 7.58191,5.488 0.84707,0.6654 2.7118,2.1737 2.8592,2.3127 0.051,0.048 -0.005,0.055 -0.36635,0.049 -0.23432,-0.01 -0.49932,-0.012 -0.58888,-0.019 z"
         style="fill:#ffffff;fill-opacity:1;stroke:none" />
      <path
         inkscape:connector-curvature="0"
         id="path4559-02-3-1-4-3-8-1-79-8-3-0-5"
         d="m -342.28233,1039.243 c -4.43093,-2.8181 -8.39571,-5.9143 -12.0898,-9.4411 -0.43749,-0.4177 -0.98422,-0.9503 -1.21492,-1.1836 l -0.4195,-0.4241 0.94184,-0.3762 c 0.51802,-0.2069 1.33882,-0.5234 1.824,-0.7034 1.71457,-0.6362 4.6309,-1.5752 4.69264,-1.511 0.0662,0.069 1.13918,2.172 1.64659,3.2274 0.61542,1.2802 1.06296,2.2543 2.1981,4.7837 1.06715,2.378 1.5302,3.369 2.19359,4.6952 0.30443,0.6084 0.53959,1.1051 0.52277,1.1038 -0.0169,0 -0.14984,-0.078 -0.29531,-0.1707 z"
         style="fill:#ffffff;fill-opacity:1;stroke:none" />
      <path
         inkscape:connector-curvature="0"
         id="path4532-2-7-6-7-7-9-2-7-0-5-4-0-6"
         d="m -315.73834,1037.8411 c -3.00349,-2.4523 -5.87218,-5.2816 -8.28947,-8.1755 -1.52132,-1.8213 -3.17918,-4.0587 -4.30567,-5.8108 l -0.22849,-0.3554 0.17272,0.02 c 0.095,0.011 0.43838,0.048 0.76305,0.083 1.90787,0.2028 5.35369,0.761 5.48136,0.888 0.0532,0.053 7.07526,13.8686 7.04819,13.8671 -0.006,0 -0.29465,-0.2325 -0.64169,-0.5159 z"
         style="fill:#ffffff;fill-opacity:1;stroke:none" />
    </g>
    <path
       inkscape:connector-curvature="0"
       style="fill:#ffffff;fill-opacity:1;stroke:#ffffff;stroke-width:1.92353392;stroke-miterlimit:4;stroke-dasharray:none;stroke-opacity:1"
       d="m 253.52399,765.28108 43.68496,0 0,9.45417 -43.68496,0 z"
       id="rect3429-1-2-3-9-9-7-9-1-5-3-0-5"
       inkscape:export-filename="C:\Users\Enrique\Desktop\UMAMI\DISEÑO\LogosWeb\250white.png"
       inkscape:export-xdpi="68.473633"
       inkscape:export-ydpi="68.473633" />
    <path
       inkscape:connector-curvature="0"
       id="path6403-8-5-9"
       style="font-style:normal;font-variant:normal;font-weight:normal;font-stretch:normal;font-size:medium;line-height:125%;font-family:'Futura Md BT';-inkscape-font-specification:'Futura Md BT';letter-spacing:1.04973912px;word-spacing:0px;fill:#ffffff;fill-opacity:1;stroke:#ffffff;stroke-width:1.92353392;stroke-linecap:butt;stroke-linejoin:miter;stroke-miterlimit:4;stroke-dasharray:none;stroke-opacity:1"
       d="m 92.300669,790.14526 10.677021,0 0,40.39181 q 0,8.99612 4.13459,13.53965 4.18039,4.4981 12.44912,4.4981 8.22414,0 12.35873,-4.4981 4.17978,-4.54353 4.17978,-13.53965 l 0,-40.39181 10.81366,0 0,41.39137 q 0,13.49422 -6.8151,20.21861 -6.81556,6.67899 -20.53707,6.67899 -13.72106,0 -20.49097,-6.67899 -6.769761,-6.67895 -6.769761,-20.21861 l 0,-41.39137 z"
       inkscape:export-filename="C:\Users\Enrique\Desktop\UMAMI\DISEÑO\LogosWeb\250white.png"
       inkscape:export-xdpi="68.473633"
       inkscape:export-ydpi="68.473633" />
    <path
       inkscape:connector-curvature="0"
       id="path6405-7-30-2"
       style="font-style:normal;font-variant:normal;font-weight:normal;font-stretch:normal;font-size:medium;line-height:125%;font-family:'Futura Md BT';-inkscape-font-specification:'Futura Md BT';letter-spacing:1.04973912px;word-spacing:0px;fill:#ffffff;fill-opacity:1;stroke:#ffffff;stroke-width:1.92353392;stroke-linecap:butt;stroke-linejoin:miter;stroke-miterlimit:4;stroke-dasharray:none;stroke-opacity:1"
       d="m 221.11389,823.81268 q -0.18275,-0.7724 -0.591,-4.27091 -0.3655,-2.90787 -0.63574,-4.81615 -0.40871,2.27179 -1.18155,4.54353 -0.72704,2.27174 -1.86294,4.63437 l -17.40128,35.43939 -17.40174,-36.16633 q -1.09056,-2.22631 -1.90859,-4.31632 -0.77223,-2.09002 -1.36278,-4.13464 -0.0487,2.09001 -0.36549,4.40725 -0.27405,2.27174 -0.86323,4.77065 l -7.13343,32.75875 -9.94983,0 15.72003,-69.33397 19.62819,41.98199 q 0.4568,0.99961 1.36278,3.31679 0.95468,2.31719 2.27226,5.72482 0.95407,-2.86241 2.99823,-7.2696 0.54536,-1.18134 0.81804,-1.81741 l 19.17383,-41.93659 16.084,69.33397 -10.04127,0 -7.36046,-32.84959 z"
       inkscape:export-filename="C:\Users\Enrique\Desktop\UMAMI\DISEÑO\LogosWeb\250white.png"
       inkscape:export-xdpi="68.473633"
       inkscape:export-ydpi="68.473633" />
    <path
       inkscape:connector-curvature="0"
       id="path6407-1-2-9"
       style="font-style:normal;font-variant:normal;font-weight:normal;font-stretch:normal;font-size:medium;line-height:125%;font-family:'Futura Md BT';-inkscape-font-specification:'Futura Md BT';letter-spacing:1.04973912px;word-spacing:0px;fill:#ffffff;fill-opacity:1;stroke:#ffffff;stroke-width:1.92353392;stroke-linecap:butt;stroke-linejoin:miter;stroke-miterlimit:4;stroke-dasharray:none;stroke-opacity:1"
       d="m 266.28093,830.53707 18.53749,0 -6.8151,-15.17533 q -0.59101,-1.45391 -1.22675,-3.31676 -0.63619,-1.90828 -1.27239,-4.22548 -0.5452,2.18091 -1.18094,4.08916 -0.59101,1.86283 -1.22675,3.45308 l -6.81556,15.17533 z m 29.89651,26.1252 -7.54215,-17.12908 -26.35246,0 -7.72398,17.12908 -11.35886,0 32.21335,-69.15226 32.16815,69.15226 -11.40405,0 z"
       inkscape:export-filename="C:\Users\Enrique\Desktop\UMAMI\DISEÑO\LogosWeb\250white.png"
       inkscape:export-xdpi="68.473633"
       inkscape:export-ydpi="68.473633" />
    <path
       inkscape:connector-curvature="0"
       id="path6409-9-8-0"
       style="font-style:normal;font-variant:normal;font-weight:normal;font-stretch:normal;font-size:medium;line-height:125%;font-family:'Futura Md BT';-inkscape-font-specification:'Futura Md BT';letter-spacing:1.04973912px;word-spacing:0px;fill:#ffffff;fill-opacity:1;stroke:#ffffff;stroke-width:1.92353392;stroke-linecap:butt;stroke-linejoin:miter;stroke-miterlimit:4;stroke-dasharray:none;stroke-opacity:1"
       d="m 373.14911,823.81268 q -0.18274,-0.7724 -0.59054,-4.27091 -0.3655,-2.90787 -0.6362,-4.81615 -0.40886,2.27179 -1.18155,4.54353 -0.72658,2.27174 -1.86248,4.63437 l -17.40174,35.43939 -17.40174,-36.16633 q -1.09056,-2.22631 -1.90813,-4.31632 -0.77223,-2.09002 -1.36324,-4.13464 -0.0487,2.09001 -0.36549,4.40725 -0.2742,2.27174 -0.86323,4.77065 l -7.13297,32.75875 -9.95044,0 15.72063,-69.33397 19.62774,41.98199 q 0.4568,0.99961 1.36324,3.31679 0.95406,2.31719 2.27165,5.72482 0.95407,-2.86241 2.99884,-7.2696 0.54536,-1.18134 0.81758,-1.81741 l 19.17368,-41.93659 16.08415,69.33397 -10.04127,0 -7.36046,-32.84959 z"
       inkscape:export-filename="C:\Users\Enrique\Desktop\UMAMI\DISEÑO\LogosWeb\250white.png"
       inkscape:export-xdpi="68.473633"
       inkscape:export-ydpi="68.473633" />
    <path
       inkscape:connector-curvature="0"
       id="path6411-7-7-2"
       style="font-style:normal;font-variant:normal;font-weight:normal;font-stretch:normal;font-size:medium;line-height:125%;font-family:'Futura Md BT';-inkscape-font-specification:'Futura Md BT';letter-spacing:1.04973912px;word-spacing:0px;fill:#ffffff;fill-opacity:1;stroke:#ffffff;stroke-width:1.92353392;stroke-linecap:butt;stroke-linejoin:miter;stroke-miterlimit:4;stroke-dasharray:none;stroke-opacity:1"
       d="m 404.45846,856.66227 0,-66.51701 10.81366,0 0,66.51701 -10.81366,0 z"
       inkscape:export-filename="C:\Users\Enrique\Desktop\UMAMI\DISEÑO\LogosWeb\250white.png"
       inkscape:export-xdpi="68.473633"
       inkscape:export-ydpi="68.473633" />
    <g
       transform="matrix(1,0,0.56510799,1,0,0)"
       style="font-style:normal;font-variant:normal;font-weight:normal;font-stretch:normal;font-size:42.75639725px;line-height:125%;font-family:'Mr De Haviland';-inkscape-font-specification:'Mr De Haviland';letter-spacing:0px;word-spacing:0px;fill:#ffffff;fill-opacity:1;stroke:none;stroke-width:1.37610996px;stroke-linecap:butt;stroke-linejoin:miter;stroke-opacity:1"
       id="text3360-1-9-5-5-6-0-4">
      <path
         d="m -345.64669,921.56698 q 0.29929,0 0.29929,0.29929 0,0.2993 -0.47032,0.51308 -2.90743,1.45372 -6.84102,1.58198 -2.05231,3.93359 -2.09506,4.06186 -0.0428,0.0855 -0.21379,0.42757 -0.12826,0.29929 -0.25653,0.47032 -0.25654,0.42756 -0.55584,0.42756 -0.76961,0 -0.76961,-1.06891 0,-2.26609 -0.55584,-4.61769 -2.3516,-0.34205 -4.31839,-1.06891 l -5.77212,10.30429 -0.89788,0.64135 q -0.51308,0.25654 -0.81237,0.25654 -0.38481,0 -0.38481,-0.42757 0,-0.25654 0.17103,-0.59859 l 6.15692,-10.81737 q -3.12122,-1.41096 -5.0025,-3.59153 -1.88128,-2.22334 -1.88128,-4.91699 0,-3.54878 2.56538,-3.54878 1.6675,0 3.80532,1.62474 2.18058,1.62475 4.0191,4.3184 l 8.3375,-14.7082 q 0.47032,-0.6841 1.6675,-0.6841 0.29929,0 0.29929,0.21378 0,0.17102 -9.36365,16.80326 1.49648,2.69366 2.18058,5.60109 1.23994,0.17103 2.90743,0.17103 4.83148,-9.40641 13.12622,-24.24288 0.47032,-0.85513 1.75301,-0.94064 0.34205,0 0.34205,0.25654 0,0.21378 -0.29929,0.72685 -0.2993,0.51308 -2.60814,4.57494 -8.38026,14.57993 -11.11667,19.62519 3.59154,-0.21379 6.58449,-1.6675 z m -16.88878,-0.34206 2.43712,-4.27563 q -1.62475,-2.43712 -3.54878,-3.93359 -1.92404,-1.49648 -3.24949,-1.49648 -1.45372,0 -1.45372,1.75302 0,2.52262 1.53923,4.57493 1.58199,2.05231 4.27564,3.37775 z m 1.53923,0.64135 q 1.71026,0.6841 3.67705,1.02615 -0.72686,-2.3516 -1.79577,-4.36115 -1.83852,3.24949 -1.88128,3.335 z m 4.78872,1.92404 q 0.38481,1.88128 0.38481,3.76256 l 0.0427,0.47032 q 0.2993,-0.6841 1.9668,-4.06186 -0.76962,0 -2.39436,-0.17102 z"
         style="font-style:normal;font-variant:normal;font-weight:normal;font-stretch:normal;font-family:'Mr De Haviland';-inkscape-font-specification:'Mr De Haviland';fill:#ffffff;fill-opacity:1;stroke:none;stroke-width:1.37610996px"
         id="path3362" />
      <path
         d="m -340.05629,926.09915 q -1.32545,0.81238 -3.07846,0.81238 l -0.51308,0 q -1.15442,1.32544 -2.47987,2.18057 -1.28269,0.81237 -2.22333,0.81237 -1.32545,0 -1.32545,-1.71025 0,-1.71026 1.83852,-3.97635 -0.17102,-0.47032 -0.17102,-1.15442 0,-1.49647 1.28269,-2.56538 1.32545,-1.11167 2.56538,-1.11167 2.60814,0 2.60814,2.82192 0,1.88128 -1.62474,4.10462 l 0.51308,0 q 1.3682,0 2.3516,-0.64135 0.12827,-0.12827 0.34205,-0.12827 0.21378,0 0.21378,0.17103 0,0.12827 -0.29929,0.3848 z m -4.10462,-4.91698 q 0.21379,-0.0855 0.34205,-0.0855 0.12827,0 0.12827,0.21378 0,0.17102 -0.47032,0.51307 -1.71025,1.32545 -2.56538,2.39436 0.94064,1.49648 2.86468,1.9668 1.6675,-1.9668 1.6675,-3.67705 0,-0.9834 -0.64135,-1.49648 -0.64134,-0.51307 -1.6675,-0.51307 -0.98339,0 -1.83852,0.59859 -0.85513,0.55583 -0.85513,1.23993 0,0.64135 0.12827,1.02615 1.32545,-1.3682 2.90743,-2.18057 z m -3.16397,3.97634 q -0.6841,1.15443 -0.6841,2.56539 0,0.76961 0.6841,0.76961 1.15442,0 2.86468,-1.71025 -1.92404,-0.34205 -2.86468,-1.62475 z"
         style="font-style:normal;font-variant:normal;font-weight:normal;font-stretch:normal;font-family:'Mr De Haviland';-inkscape-font-specification:'Mr De Haviland';fill:#ffffff;fill-opacity:1;stroke:none;stroke-width:1.37610996px"
         id="path3364" />
      <path
         d="m -339.67015,914.98249 q 2.90744,0 5.72936,-0.0428 4.57493,-5.85762 6.24243,-5.85762 0.59859,0 0.59859,0.64134 0,2.05231 -2.99295,5.13077 l 3.24949,-0.0428 q 3.24949,-0.12827 3.97634,-0.12827 0.72686,0 0.72686,0.17102 0,0.81237 -1.11166,0.85513 l -8.03821,0.34205 q -2.09506,1.9668 -5.17352,4.14737 -3.24949,5.34455 -3.24949,7.26859 0,0.9834 1.23994,0.9834 1.28269,0 4.0191,-1.36821 l 3.46327,-2.00955 q 0.0428,0.0855 0.0428,0.34205 0,0.25654 -0.38481,0.42757 -1.36821,0.94064 -2.99295,1.88128 -3.46327,1.75301 -5.30179,1.75301 -0.85513,0 -1.32545,-0.34205 -0.47032,-0.34205 -0.51308,-0.6841 l -0.0855,-0.34206 q 0,-1.45371 1.96679,-4.87422 1.9668,-3.46327 4.66045,-7.05481 -2.05231,0.0855 -3.89083,0.0855 -1.83853,0 -1.83853,-0.42756 0,-0.81237 0.9834,-0.85513 z m 11.24493,-4.36115 q 0,-0.21378 -0.17102,-0.21378 -0.9834,0 -4.36116,4.48942 l 2.13782,0 q 2.39436,-2.60814 2.39436,-4.27564 z m -3.59153,5.47282 q -1.36821,0 -1.83853,0.0427 -0.38481,0.55584 -1.06891,1.62475 -0.6841,1.06891 -0.94064,1.45371 2.22333,-1.62474 3.84808,-3.12121 z"
         style="font-style:normal;font-variant:normal;font-weight:normal;font-stretch:normal;font-family:'Mr De Haviland';-inkscape-font-specification:'Mr De Haviland';fill:#ffffff;fill-opacity:1;stroke:none;stroke-width:1.37610996px"
         id="path3366" />
      <path
         d="m -329.69856,924.94473 q -2.56538,0 -2.56538,-1.11166 0,-1.32545 3.0357,-3.12122 3.03571,-1.83853 5.47282,-1.83853 1.23994,0 1.23994,0.76962 0,0.42756 -0.64135,0.94064 -0.64134,0.51308 -1.23993,0.81237 -0.59859,0.2993 -0.68411,0.2993 -0.25653,0 -0.34205,-0.21379 -0.0855,-0.29929 0.42757,-0.59859 0.55583,-0.34205 0.55583,-0.72685 0,-0.38481 -0.9834,-0.38481 -0.94064,0 -2.99294,1.3682 -2.05231,1.32545 -2.05231,2.18058 0,0.64134 1.49647,0.64134 0.25654,0 0.94064,-0.0427 0.68411,-0.0428 0.68411,0.17102 0,0.21379 -2.13782,1.53923 -2.09507,1.32545 -2.09507,2.26609 0,1.06891 1.36821,1.06891 1.41096,0 3.16397,-0.72686 2.82192,-1.23993 5.13077,-2.65089 l 0.81237,-0.51308 q 0.0428,0.0855 0.0428,0.34205 0,0.25654 -0.38481,0.42757 -2.26609,1.53923 -4.95974,2.95019 -2.69366,1.3682 -4.87423,1.3682 -2.13782,0 -2.13782,-1.41096 0,-1.45372 3.7198,-3.80532 z"
         style="font-style:normal;font-variant:normal;font-weight:normal;font-stretch:normal;font-family:'Mr De Haviland';-inkscape-font-specification:'Mr De Haviland';fill:#ffffff;fill-opacity:1;stroke:none;stroke-width:1.37610996px"
         id="path3368" />
      <path
         d="m -321.16799,929.7762 q -1.92404,0 -1.92404,-2.09506 0,-2.77916 2.99295,-7.95269 3.03571,-5.21628 6.88378,-9.32089 3.89083,-4.14737 6.11417,-4.14737 0.81237,0 0.81237,1.15442 0,1.79577 -3.03571,5.85763 -2.99294,4.06185 -6.45621,7.61063 -3.46327,3.54878 -5.34455,4.87423 -0.0855,0.68411 -0.0855,0.94064 0,0.21379 0.0428,0.51308 0.0428,0.2993 0.34205,0.76962 0.2993,0.47032 0.9834,0.47032 0.72686,0 2.52263,-0.81238 1.79577,-0.85512 3.16397,-1.71025 l 1.36821,-0.85513 q 0.0428,0.0855 0.0428,0.34205 0,0.25654 -0.38481,0.42757 -5.77211,3.93358 -8.0382,3.93358 z m 13.34,-21.33544 q -0.0428,-0.94064 -0.55584,-0.94064 -1.32544,0 -4.0191,2.99295 -2.69365,2.99295 -5.21628,7.18307 -2.52262,4.14737 -3.29224,7.14032 1.79577,-1.45372 4.61769,-4.27564 2.82192,-2.82192 5.55833,-6.45621 2.73641,-3.6343 2.90744,-5.64385 z"
         style="font-style:normal;font-variant:normal;font-weight:normal;font-stretch:normal;font-family:'Mr De Haviland';-inkscape-font-specification:'Mr De Haviland';fill:#ffffff;fill-opacity:1;stroke:none;stroke-width:1.37610996px"
         id="path3370" />
      <path
         d="m -278.88525,917.41961 q -3.71981,4.14737 -7.43961,6.96929 -1.83853,1.3682 -4.23289,2.52263 -2.39436,1.15442 -4.31839,1.15442 -4.40391,0 -4.40391,-4.14737 0,-3.89083 1.88128,-7.90994 1.88128,-4.06185 4.78872,-7.22583 2.95019,-3.16397 6.32794,-5.6866 3.37776,-2.56538 6.49897,-3.93359 3.16398,-1.3682 5.3018,-1.3682 2.77916,0 2.90743,2.43711 1.49648,-0.64134 2.26609,-0.64134 0.51308,0.12827 0.51308,0.47032 0,0.34205 -0.21378,0.64134 -0.21378,0.2993 -0.72686,0.2993 -0.51308,0 -1.9668,0.51308 -0.59859,3.42051 -4.0191,6.45621 -3.42051,3.03571 -5.60109,3.03571 -1.11166,0 -1.11166,-1.02616 0,-1.96679 3.12122,-4.7032 3.12121,-2.77917 6.62724,-4.53218 l 0,-0.0428 q 0,-1.92403 -2.26609,-1.92403 -1.83853,0 -4.66045,1.28269 -2.82192,1.23993 -5.90038,3.63429 -3.03571,2.3516 -5.72936,5.34455 -2.6509,2.95019 -4.40391,6.84103 -1.71025,3.84807 -1.71025,7.65339 0,3.29224 3.12121,3.29224 6.79827,0 18.64179,-14.15236 0.72686,-0.85513 1.28269,-0.85513 0.55584,0 0.55584,0.12827 0,0.0855 -0.25654,0.59859 -0.25654,0.47032 -2.95019,4.74596 -2.6509,4.27564 -5.72936,9.19262 -7.95269,12.82692 -8.63679,13.85307 -0.12827,0.25654 -0.12827,0.42757 0,0.17102 0.38481,0.17102 l 1.06891,-0.0855 q 0.34205,0 0.34205,0.12827 0,0.21378 -1.23994,0.94064 -1.23993,0.72686 -1.75301,0.72686 -0.51308,0 -0.51308,-0.64135 0,-0.64134 0.42757,-1.92403 0.47032,-1.23994 3.97634,-6.79827 3.54878,-5.51558 6.75551,-10.43256 3.24949,-4.95974 3.24949,-5.17353 0,-0.25653 -0.12827,-0.25653 z m -1.32545,-7.56789 q 1.58199,0 4.19013,-2.43711 2.60814,-2.43712 3.20673,-5.43006 -2.95019,1.3682 -5.51558,3.54878 -2.52262,2.18057 -2.52262,3.7198 0,0.59859 0.64134,0.59859 z"
         style="font-style:normal;font-variant:normal;font-weight:normal;font-stretch:normal;font-family:'Mr De Haviland';-inkscape-font-specification:'Mr De Haviland';fill:#ffffff;fill-opacity:1;stroke:none;stroke-width:1.37610996px"
         id="path3372" />
      <path
         d="m -269.81488,924.00409 q -0.25654,0 -0.25654,-0.29929 l 0.12827,-0.2993 q 0.76961,-0.72686 0.76961,-1.23993 0,-0.64135 -0.6841,-0.64135 -1.49647,0 -4.06186,2.09506 -2.52263,2.05231 -2.52263,3.67705 0,0.68411 0.89789,0.68411 0.89788,0 2.05231,-0.72686 1.19717,-0.76962 2.00955,-1.49648 0.85512,-0.76961 0.94064,-0.76961 0.42756,0.0428 0.42756,0.42756 0,0.17103 -0.6841,1.11167 -0.64135,0.94064 -0.64135,1.49647 0,0.42757 0.6841,0.42757 0.72686,0 2.52263,-0.81238 1.79577,-0.85512 3.16398,-1.71025 l 1.3682,-0.85513 q 0.0428,0.0855 0.0428,0.34205 0,0.25654 -0.38481,0.42757 -5.77211,3.93358 -8.0382,3.93358 -1.11167,0 -1.11167,-1.11166 0,-0.47032 0.17103,-0.9834 -0.2993,0.34205 -1.79577,1.06891 -1.45372,0.6841 -2.60814,0.6841 -1.15443,0 -1.15443,-1.06891 0,-2.52262 3.50603,-5.13076 3.50602,-2.6509 5.90038,-2.6509 1.41096,0 1.41096,1.19718 0,0.6841 -0.85513,1.45372 -0.85512,0.76961 -1.19717,0.76961 z"
         style="font-style:normal;font-variant:normal;font-weight:normal;font-stretch:normal;font-family:'Mr De Haviland';-inkscape-font-specification:'Mr De Haviland';fill:#ffffff;fill-opacity:1;stroke:none;stroke-width:1.37610996px"
         id="path3374" />
      <path
         d="m -264.65272,926.22742 q -0.17102,0.0855 -0.29929,0.0855 -0.17103,0 -0.17103,-0.17103 0,-0.17102 0.12827,-0.29929 1.75301,-0.9834 3.84808,-3.20673 -1.92404,-0.59859 -1.92404,-1.6675 0,-1.11167 1.45372,-2.43712 1.45372,-1.3682 2.73641,-1.3682 0.85513,0 0.85513,1.02615 0,1.58199 -1.58199,3.37776 2.05231,0.34205 2.05231,0.98339 0,0.85513 -0.76962,1.32545 -0.72686,0.42757 -1.71026,1.58199 -0.98339,1.15442 -0.98339,2.30884 0,0.25654 0.17102,0.47032 0.17103,0.21379 0.72686,0.21379 0.55583,0 2.3516,-0.81238 1.79577,-0.85512 3.16398,-1.71025 l 1.3682,-0.85513 q 0.0428,0.0855 0.0428,0.34205 0,0.25654 -0.38481,0.42757 -5.77211,3.93358 -8.0382,3.93358 -1.11167,0 -1.11167,-1.11166 0,-0.89789 0.59859,-1.88128 0.64135,-0.9834 1.36821,-1.62475 0.76961,-0.64134 1.3682,-1.19718 0.64135,-0.59859 0.64135,-0.76961 0,-0.17103 -0.55584,-0.21378 -0.51307,-0.0428 -1.3682,-0.21378 -2.3516,2.52262 -3.97635,3.46326 z m 2.6509,-5.94314 q 0,0.85513 1.88128,1.19718 1.11167,-1.3682 1.11167,-2.3516 0,-1.02615 -0.64135,-1.02615 -0.64134,0 -1.49647,0.76961 -0.85513,0.72686 -0.85513,1.41096 z"
         style="font-style:normal;font-variant:normal;font-weight:normal;font-stretch:normal;font-family:'Mr De Haviland';-inkscape-font-specification:'Mr De Haviland';fill:#ffffff;fill-opacity:1;stroke:none;stroke-width:1.37610996px"
         id="path3376" />
      <path
         d="m -247.07382,925.073 q -0.2993,1.15442 -0.2993,2.47987 0,1.32545 1.11167,1.32545 0.29929,0 0.9834,-0.29929 0.72686,-0.34206 0.81237,-0.34206 0.12827,0 0.12827,0.0855 0,0.51307 -0.89789,1.06891 -0.89788,0.55583 -1.79577,0.55583 -1.79576,0 -1.79576,-2.39436 0,-0.55583 0.0428,-0.85513 -3.42051,2.99295 -5.25903,2.99295 -1.79577,0 -1.79577,-1.23993 0,-1.83853 3.12121,-4.57494 3.16398,-2.77916 5.9859,-3.16397 2.43711,-5.0025 5.98589,-9.36365 3.59154,-4.36116 5.51558,-4.36116 0.34205,0 0.55583,0.38481 0.21378,0.34205 0.21378,0.6841 0,1.41097 -4.19012,7.09757 -4.14737,5.6866 -8.42301,9.91948 z m 11.03115,-16.3757 q 0,-0.34205 -0.25654,-0.34205 -0.72686,0 -2.77917,2.39436 -2.00955,2.39436 -4.23288,6.11416 -2.22333,3.67705 -3.29224,6.75551 3.97634,-4.19012 7.26859,-8.67955 3.29224,-4.48942 3.29224,-6.24243 z m -17.74391,19.4114 q 0,0.64135 0.72686,0.64135 1.15442,0 4.48942,-3.20673 0.55584,-1.96679 1.32545,-3.63429 -2.09506,0.51307 -4.31839,2.73641 -2.22334,2.22333 -2.22334,3.46326 z"
         style="font-style:normal;font-variant:normal;font-weight:normal;font-stretch:normal;font-family:'Mr De Haviland';-inkscape-font-specification:'Mr De Haviland';fill:#ffffff;fill-opacity:1;stroke:none;stroke-width:1.37610996px"
         id="path3378" />
      <path
         d="m -240.34437,924.94473 q -2.56538,0 -2.56538,-1.11166 0,-1.32545 3.0357,-3.12122 3.03571,-1.83853 5.47282,-1.83853 1.23994,0 1.23994,0.76962 0,0.42756 -0.64135,0.94064 -0.64134,0.51308 -1.23993,0.81237 -0.59859,0.2993 -0.6841,0.2993 -0.25654,0 -0.34206,-0.21379 -0.0855,-0.29929 0.42757,-0.59859 0.55583,-0.34205 0.55583,-0.72685 0,-0.38481 -0.9834,-0.38481 -0.94064,0 -2.99294,1.3682 -2.05231,1.32545 -2.05231,2.18058 0,0.64134 1.49647,0.64134 0.25654,0 0.94064,-0.0427 0.68411,-0.0428 0.68411,0.17102 0,0.21379 -2.13782,1.53923 -2.09507,1.32545 -2.09507,2.26609 0,1.06891 1.36821,1.06891 1.41096,0 3.16397,-0.72686 2.82192,-1.23993 5.13077,-2.65089 l 0.81237,-0.51308 q 0.0428,0.0855 0.0428,0.34205 0,0.25654 -0.38481,0.42757 -2.26609,1.53923 -4.95974,2.95019 -2.69366,1.3682 -4.87423,1.3682 -2.13782,0 -2.13782,-1.41096 0,-1.45372 3.7198,-3.80532 z"
         style="font-style:normal;font-variant:normal;font-weight:normal;font-stretch:normal;font-family:'Mr De Haviland';-inkscape-font-specification:'Mr De Haviland';fill:#ffffff;fill-opacity:1;stroke:none;stroke-width:1.37610996px"
         id="path3380" />
      <path
         d="m -232.96822,925.84262 q 0.81238,-0.47032 2.13782,-1.49648 3.24949,-2.56538 3.46327,-2.56538 0.64135,0 0.64135,0.55583 0,0.55583 -0.6841,1.71026 -0.64135,1.15442 -1.49648,2.39436 -0.81237,1.23993 -0.94064,1.49647 0.0428,0.0428 0.17103,0.0428 0.17102,0 1.71025,-1.11167 1.53923,-1.15442 3.20673,-2.39436 1.6675,-1.28269 1.9668,-1.45372 0.29929,-0.21378 0.55583,-0.21378 0.51308,0.0428 0.51308,0.59859 0,0.21378 -1.45372,2.18058 -1.45372,1.92404 -1.45372,2.47987 0,0.38481 0.89789,0.38481 0.94064,0 2.73641,-0.81238 1.79576,-0.85512 3.16397,-1.71025 l 1.3682,-0.85513 q 0.0428,0.0855 0.0428,0.34205 0,0.25654 -0.38481,0.42757 -5.77211,3.93358 -8.0382,3.93358 -1.32545,0 -1.32545,-1.02615 0,-0.9834 0.55583,-1.88128 0.59859,-0.89788 1.02616,-1.49647 0.42756,-0.64135 0.42756,-0.68411 -1.96679,1.41096 -4.66045,3.37776 -2.69365,1.96679 -3.0357,1.96679 -0.25654,0 -0.25654,-0.59859 0,-0.59859 1.6675,-3.12121 1.71026,-2.52263 1.71026,-2.69366 0,-0.17102 -0.0855,-0.17102 l -0.42756,0.21378 -2.13782,1.71026 q -0.21378,0.17102 -0.81237,0.55583 -0.59859,0.38481 -0.76962,0.38481 -0.12827,0 -0.12827,-0.17103 0,-0.21378 0.12827,-0.29929 z"
         style="font-style:normal;font-variant:normal;font-weight:normal;font-stretch:normal;font-family:'Mr De Haviland';-inkscape-font-specification:'Mr De Haviland';fill:#ffffff;fill-opacity:1;stroke:none;stroke-width:1.37610996px"
         id="path3382" />
      <path
         d="m -182.73012,908.9966 q -1.6675,0 -1.6675,-1.45372 0,-2.22333 2.47987,-4.19013 2.47987,-1.96679 5.90038,-3.20673 -0.29929,-1.23993 -1.53923,-1.88128 -1.23993,-0.6841 -3.07846,-0.6841 -1.79577,0 -3.76256,0.6841 -1.92404,0.6841 -3.67705,1.96679 -1.71026,1.23994 -2.82192,3.335 -1.06891,2.05231 -1.06891,4.53218 0,0.85513 1.28269,5.0025 1.28269,4.14737 1.28269,6.88378 0,0.6841 -0.17102,1.96679 1.62474,-0.17102 2.3516,-0.17102 4.14737,0 4.14737,2.18057 0,0.76962 -0.47032,1.2827 -0.47032,0.51307 -1.58199,1.19718 -0.34205,-0.21379 -0.34205,-0.38481 0,-0.17103 0.17103,-0.2993 1.28269,-0.72686 1.28269,-1.45371 0,-1.45372 -3.37776,-1.45372 -1.23993,0 -2.39436,0.17102 -0.72686,2.73641 -2.73641,5.13077 -1.96679,2.3516 -4.4039,3.80532 -2.43712,1.49647 -4.91699,2.30885 -2.43712,0.81237 -4.3184,0.81237 -2.90743,0 -2.90743,-1.71026 0,-2.39436 2.99295,-4.83147 2.99294,-2.43712 7.09756,-4.06186 4.14737,-1.6675 8.12371,-2.3516 0.17103,-1.19718 0.17103,-1.92404 0,-1.83852 -1.36821,-5.72936 -1.32544,-3.93358 -1.32544,-6.75551 0,-2.82192 2.22333,-5.60108 2.22333,-2.82193 5.25904,-4.3184 3.07846,-1.49647 5.81487,-1.49647 4.31839,0 4.74596,3.63429 2.39435,-0.76962 3.24948,-0.76962 0.85513,0 0.89789,0.0855 0.0855,0.0427 0.0855,0.47032 0,0.42756 -0.38481,0.55583 -1.92404,0.0855 -3.80532,0.55583 -0.0855,3.46327 -2.60814,5.81487 -2.52263,2.35161 -4.83147,2.35161 z m -24.67044,23.30223 q 0,1.23994 2.47987,1.23994 3.46327,0 7.73891,-2.47987 2.09506,-1.19718 3.76256,-3.24949 1.71026,-2.09506 2.3516,-4.61769 -3.63429,0.59859 -7.31134,1.92404 -3.6343,1.32545 -6.32795,3.29224 -2.69365,1.92404 -2.69365,3.89083 z m 24.37114,-25.01249 q 0,0.81237 0.85513,0.81237 1.62475,0 3.89083,-2.18058 2.30885,-2.22333 2.35161,-4.87422 -2.99295,0.94064 -5.04526,2.60814 -2.05231,1.6675 -2.05231,3.63429 z"
         style="font-style:normal;font-variant:normal;font-weight:normal;font-stretch:normal;font-family:'Mr De Haviland';-inkscape-font-specification:'Mr De Haviland';fill:#ffffff;fill-opacity:1;stroke:none;stroke-width:1.37610996px"
         id="path3384" />
      <path
         d="m -178.10909,922.25108 q 2.82193,-1.58199 4.78872,-1.58199 2.00955,0 2.00955,1.6675 0,2.26609 -2.86468,4.74596 -2.82192,2.43712 -5.64384,2.43712 -0.25654,0 -0.64135,-0.25654 -0.38481,-0.25654 -0.38481,-0.85513 0,-0.59859 0.94064,-1.41096 0.9834,-0.81237 1.15443,-0.81237 0.21378,0 0.38481,0.0855 0.21378,0.0428 0.3848,0.21378 0.21378,0.17103 0.21378,0.2993 0,0.12827 -0.21378,0.34205 -0.42756,0.29929 -0.94064,0.81237 -0.47032,0.47032 -0.47032,0.6841 0,0.17103 0.42757,0.17103 0.42756,0 1.79576,-0.59859 1.36821,-0.64135 2.73641,-2.05231 1.36821,-1.45372 1.36821,-3.16397 0,-1.06891 -1.23994,-1.06891 -1.88128,0 -4.44666,1.45371 -3.67705,6.15693 -4.61769,7.86718 -3.71981,6.84103 -6.62724,10.64634 -2.90744,3.84808 -5.21629,3.84808 -0.76961,0 -0.76961,-0.94064 0,-3.76256 5.0025,-10.3898 4.95974,-6.58449 10.56083,-10.64635 4.31839,-7.14032 5.21628,-8.93608 -0.47032,0.55583 -1.58199,1.32544 l -2.43711,1.6675 q -0.25654,0.0855 -0.47032,0.0855 -0.21379,0 -0.25654,-0.21379 4.0191,-2.52262 5.94314,-4.61769 0.47032,-0.51307 0.51307,-0.64134 0.12827,-0.12827 0.59859,-0.0855 0.47032,0.0428 0.47032,0.42757 0,0.17102 -0.64134,1.19718 -0.59859,0.98339 -5.04526,8.29474 z m -6.49897,8.63679 3.46327,-5.90038 q -4.91699,3.7198 -9.27814,9.91948 -4.36115,6.24244 -4.36115,9.19263 0,0.38481 0.25654,0.38481 2.69365,0 9.91948,-13.59654 z"
         style="font-style:normal;font-variant:normal;font-weight:normal;font-stretch:normal;font-family:'Mr De Haviland';-inkscape-font-specification:'Mr De Haviland';fill:#ffffff;fill-opacity:1;stroke:none;stroke-width:1.37610996px"
         id="path3386" />
      <path
         d="m -163.0909,924.00409 q -0.25654,0 -0.25654,-0.29929 l 0.12827,-0.2993 q 0.76962,-0.72686 0.76962,-1.23993 0,-0.64135 -0.68411,-0.64135 -1.49647,0 -4.06185,2.09506 -2.52263,2.05231 -2.52263,3.67705 0,0.68411 0.89788,0.68411 0.89789,0 2.05231,-0.72686 1.19718,-0.76962 2.00955,-1.49648 0.85513,-0.76961 0.94064,-0.76961 0.42756,0.0428 0.42756,0.42756 0,0.17103 -0.6841,1.11167 -0.64134,0.94064 -0.64134,1.49647 0,0.42757 0.6841,0.42757 0.72686,0 2.52263,-0.81238 1.79576,-0.85512 3.16397,-1.71025 l 1.3682,-0.85513 q 0.0428,0.0855 0.0428,0.34205 0,0.25654 -0.38481,0.42757 -5.77211,3.93358 -8.0382,3.93358 -1.11167,0 -1.11167,-1.11166 0,-0.47032 0.17103,-0.9834 -0.2993,0.34205 -1.79577,1.06891 -1.45372,0.6841 -2.60814,0.6841 -1.15442,0 -1.15442,-1.06891 0,-2.52262 3.50602,-5.13076 3.50603,-2.6509 5.90039,-2.6509 1.41096,0 1.41096,1.19718 0,0.6841 -0.85513,1.45372 -0.85513,0.76961 -1.19718,0.76961 z"
         style="font-style:normal;font-variant:normal;font-weight:normal;font-stretch:normal;font-family:'Mr De Haviland';-inkscape-font-specification:'Mr De Haviland';fill:#ffffff;fill-opacity:1;stroke:none;stroke-width:1.37610996px"
         id="path3388" />
    </g>
  </g>
</svg>
